<?xml version="1.0" encoding="UTF-8"?>
<svg width="60px" height="33px" viewBox="0 0 60 33" version="1.1" xmlns="http://www.w3.org/2000/svg" xmlns:xlink="http://www.w3.org/1999/xlink">
    <!-- Generator: Sketch 44.1 (41455) - http://www.bohemiancoding.com/sketch -->
    <title>rm_small</title>
    <desc>Created with Sketch.</desc>
    <defs></defs>
    <g id="Page-1" stroke="none" stroke-width="1" fill="none" fill-rule="evenodd">
        <g id="rm_small" fill-rule="nonzero" fill="#000000">
            <path d="M55.93,3.41 L55.93,29.41 L59.44,32.48 L59.44,32.78 L44.76,32.78 L44.76,32.48 L48.32,29.41 L48.32,9.15 L36.89,30.41 L36.15,30.41 L25.07,9.2 L25.07,29.38 L28.58,32.45 L28.58,32.75 L18.3,32.75 L18.3,32.45 L21.81,29.38 L21.81,4.6 C21.56,4.25 18.99,0.54 18.81,0.25 L18.81,0 L28.31,0 L39,20.28 L49.5,0 L59.34,0 L59.34,0.25 L55.93,3.41 Z" id="_Compound_Path_"></path>
            <path d="M9.4,10.68 L9.4,15.53 C11.4,12.76 13.21,10.73 14.25,10.73 C15.5875251,10.8163745 16.9050161,11.0994161 18.16,11.57 L16.07,17.8 C14.7878739,17.0364593 13.3544912,16.5620778 11.87,16.41 C10.9666243,16.4011363 10.0901017,16.7169684 9.4,17.3 L9.4,29.77 L13.7,32.44 L13.7,32.74 L0,32.74 L0,32.44 L2.77,29.92 L2.77,17.33 L0.1,15.21 L0.1,14.91 L9.4,10.68 Z" id="_Compound_Path_2"></path>
        </g>
    </g>
</svg>