<?xml version="1.0" standalone="no"?>
<!DOCTYPE svg PUBLIC "-//W3C//DTD SVG 20010904//EN"
 "http://www.w3.org/TR/2001/REC-SVG-20010904/DTD/svg10.dtd">
<svg version="1.0" xmlns="http://www.w3.org/2000/svg"
 width="1200.000000pt" height="630.000000pt" viewBox="0 0 1200.000000 630.000000"
 preserveAspectRatio="xMidYMid meet">
<metadata>
Created by potrace 1.14, written by Peter Selinger 2001-2017
</metadata>
<g transform="translate(0.000000,630.000000) scale(0.100000,-0.100000)"
fill="#000000" stroke="none">
<path d="M8550 3909 c-112 -54 -206 -102 -208 -107 -1 -4 27 -32 63 -60 l65
-53 0 -623 0 -624 98 -6 c206 -14 383 -11 446 8 194 58 327 194 371 377 18 79
19 227 1 294 -31 119 -101 206 -199 251 -119 54 -239 34 -375 -63 l-47 -33 -5
369 -5 368 -205 -98z m425 -712 c90 -51 131 -163 123 -339 -9 -205 -97 -315
-244 -306 -100 6 -94 -14 -94 333 l0 303 38 15 c55 24 129 21 177 -6z"/>
<path d="M6568 3902 c-109 -54 -198 -100 -198 -104 0 -3 29 -30 65 -59 l65
-52 0 -562 0 -561 -60 -52 c-33 -29 -60 -57 -60 -63 0 -5 102 -9 255 -9 140 0
255 4 255 8 0 4 -25 32 -55 62 l-55 54 0 140 0 140 105 -156 c112 -167 179
-237 243 -256 75 -23 292 -9 292 19 0 4 -10 15 -22 23 -42 29 -138 150 -240
298 l-101 148 -138 0 -139 0 0 540 c0 297 -3 540 -7 539 -5 0 -97 -44 -205
-97z"/>
<path d="M9644 3902 l-198 -99 67 -54 67 -54 0 -565 0 -565 -62 -56 c-35 -32
-60 -60 -57 -63 3 -4 124 -5 269 -4 l263 3 -61 59 -62 59 0 719 c0 612 -2 718
-14 718 -8 0 -103 -44 -212 -98z"/>
<path d="M2790 3861 c0 -5 29 -52 65 -104 l65 -95 0 -536 0 -535 -75 -68 c-41
-37 -75 -71 -75 -75 0 -5 99 -8 220 -8 121 0 220 3 219 8 0 4 -34 36 -75 72
l-74 65 0 440 0 440 238 -460 c176 -338 243 -460 256 -460 13 0 82 122 257
450 132 247 242 452 245 454 2 2 4 -192 4 -431 l0 -436 -74 -63 c-41 -35 -75
-67 -75 -71 -1 -5 144 -8 322 -8 l322 0 -82 76 -83 76 0 562 0 563 75 72 c41
40 75 75 75 77 0 2 -96 4 -212 4 l-213 0 -225 -440 c-124 -242 -227 -439 -230
-440 -3 0 -108 198 -234 440 l-228 440 -204 0 c-114 0 -204 -4 -204 -9z"/>
<path d="M7024 3391 c-104 -47 -131 -187 -53 -275 101 -115 280 -62 305 91 22
139 -121 243 -252 184z"/>
<path d="M1306 3311 c-105 -49 -191 -92 -193 -98 -2 -6 21 -29 52 -53 l55 -42
0 -278 0 -278 -60 -55 c-33 -29 -60 -57 -60 -60 0 -4 133 -7 295 -7 171 0 295
4 295 9 0 5 -40 35 -90 66 l-90 57 0 274 0 275 37 16 c49 20 126 12 197 -20
l55 -25 45 134 45 135 -24 9 c-40 15 -145 31 -164 25 -19 -6 -116 -104 -163
-165 l-27 -35 -1 103 c0 56 -3 102 -7 101 -5 0 -93 -40 -197 -88z"/>
<path d="M4998 3385 c-73 -18 -148 -56 -219 -111 -66 -50 -151 -142 -146 -157
3 -9 188 -77 209 -77 4 0 8 23 8 51 0 99 56 164 142 164 55 0 95 -25 120 -76
14 -26 18 -59 18 -136 l0 -102 -37 -10 c-21 -6 -125 -31 -230 -56 -174 -42
-195 -49 -218 -76 -73 -88 -52 -239 46 -322 109 -94 261 -88 390 14 l39 31 0
-46 0 -46 200 0 c165 0 200 2 200 14 0 8 -25 37 -57 66 l-56 51 6 307 c8 332
5 354 -42 420 -64 88 -234 132 -373 97z m132 -660 c0 -133 -1 -135 -97 -135
-72 0 -118 25 -140 78 -11 27 -13 47 -7 72 9 34 11 35 114 67 58 17 111 32
118 32 9 1 12 -28 12 -114z"/>
<path d="M5786 3311 c-104 -48 -191 -92 -193 -98 -2 -6 21 -31 51 -54 l56 -44
0 -278 0 -278 -62 -59 -63 -59 298 -1 c163 0 297 3 297 8 0 4 -41 32 -90 62
l-90 55 0 277 0 276 45 18 c40 15 53 15 103 4 31 -7 74 -21 95 -32 22 -11 41
-17 43 -15 8 8 84 241 84 258 0 17 -40 31 -133 44 l-48 7 -62 -63 c-35 -35
-77 -82 -95 -104 l-31 -40 -1 103 c0 56 -3 102 -7 101 -5 -1 -93 -40 -197 -88z"/>
<path d="M7870 3394 c-59 -11 -150 -49 -210 -89 -86 -57 -209 -184 -189 -195
8 -4 60 -24 117 -44 l102 -35 0 55 c0 110 58 171 153 161 42 -4 56 -10 84 -41
l33 -36 0 -118 0 -117 -217 -54 c-120 -30 -226 -58 -235 -63 -10 -5 -27 -25
-37 -46 -90 -176 42 -366 254 -366 63 0 107 17 193 76 l42 29 0 -36 0 -35 200
0 c110 0 200 4 200 9 0 5 -25 30 -55 56 l-55 47 0 315 c0 220 -4 328 -12 357
-17 56 -90 128 -153 150 -50 17 -169 28 -215 20z m100 -669 c0 -136 -3 -139
-111 -133 -61 3 -73 7 -100 35 -36 35 -50 106 -27 135 11 14 190 75 226 77 9
1 12 -28 12 -114z"/>
<path d="M2235 3372 c-148 -55 -262 -180 -309 -341 -21 -72 -21 -221 0 -292
40 -134 117 -228 232 -282 64 -31 72 -32 192 -32 125 0 125 0 203 38 53 26
102 61 150 106 82 78 83 98 4 73 -36 -11 -89 -16 -172 -17 -105 0 -126 3 -172
24 -61 27 -127 94 -154 157 -19 42 -42 191 -33 206 3 5 133 8 290 8 l285 0 -6
23 c-4 12 -25 60 -48 106 -47 97 -118 175 -192 212 -68 32 -197 38 -270 11z
m180 -114 c30 -24 55 -74 55 -113 l0 -25 -141 0 -140 0 6 23 c12 40 55 97 88
117 43 26 97 26 132 -2z"/>
<path d="M10360 3370 c-199 -73 -324 -261 -324 -485 0 -203 87 -351 252 -428
57 -27 81 -32 164 -35 119 -5 205 18 296 78 67 45 157 139 145 151 -4 4 -42
-2 -83 -13 -157 -41 -325 -12 -408 72 -60 59 -102 174 -102 277 l0 33 290 0
290 0 -20 50 c-56 142 -133 241 -225 288 -70 36 -196 41 -275 12z m180 -110
c28 -20 60 -84 60 -120 0 -19 -7 -20 -141 -20 l-140 0 7 23 c13 43 33 74 69
106 43 38 101 42 145 11z"/>
</g>
</svg>
