<svg xmlns="http://www.w3.org/2000/svg" width="32.611996mm" height="21.397415mm">

  <path d="m 50.2576,11.605434 v 6.564541 H 38.782996 q -0.800554,0 -1.360942,0.560389 -0.560387,0.560386 -0.560387,1.36094 v 9.019575 h 12.59538 q 0.426962,-3.469068 2.028069,-6.457801 1.601107,-3.042106 4.082824,-5.230287 2.481717,-2.188179 5.683933,-3.469066 3.202216,-1.227516 6.778022,-1.227516 2.775254,0 5.337026,0.800554 2.561772,0.747184 4.776637,2.161495 2.214866,1.414313 3.976085,3.389011 1.707848,1.921331 2.881992,4.322991 h -5.763986 q -1.867959,-2.668513 -4.803324,-4.21625 -2.935363,-1.547738 -6.40443,-1.547738 -2.881994,0 -5.390396,1.120775 -2.561773,1.067406 -4.456416,2.962051 -1.894645,1.894643 -2.962049,4.456415 -1.120775,2.508403 -1.120775,5.390397 0,2.881994 1.120775,5.390395 1.067404,2.561772 2.962049,4.456417 1.894643,1.894643 4.456416,3.015418 2.508402,1.067406 5.390396,1.067406 3.308957,0 6.190951,-1.494366 2.881992,-1.494368 4.749951,-3.9494 h 5.710618 q -1.120775,2.241551 -2.828624,4.162879 -1.761219,1.86796 -3.949398,3.255587 -2.188181,1.387626 -4.696584,2.188179 -2.508401,0.747184 -5.176914,0.747184 -3.575806,0 -6.724653,-1.227515 -3.202214,-1.227516 -5.657247,-3.415697 -2.455032,-2.188179 -4.056139,-5.123545 -1.601106,-2.935363 -2.134809,-6.35106 h -12.59538 v 16.117817 h -4.643213 q -0.800553,0 -1.334256,-0.533703 -0.533703,-0.533701 -0.533703,-1.334256 V 17.903125 q 0,-2.668513 1.921329,-4.616527 1.92133,-1.948015 4.589843,-1.948015 H 50.2576 Z m 17.772295,8.219019 q 3.896029,0 6.804708,2.214865 2.908678,2.214867 4.136194,5.683933 h -5.497136 q -0.800553,-1.227516 -2.294921,-2.108124 -1.494367,-0.880611 -3.148845,-0.880611 -2.668512,0 -4.616527,1.948015 -1.948014,1.948014 -1.948014,4.616527 0,2.668513 1.948014,4.616527 1.948015,1.948014 4.616527,1.948014 1.654478,0 3.015419,-0.747182 1.360942,-0.747184 2.161495,-1.9747 h 5.497137 q -1.227515,3.255585 -4.242936,5.443766 -3.015418,2.188179 -6.697967,2.188179 -2.348291,0 -4.42973,-0.907294 -2.08144,-0.907294 -3.655863,-2.481715 -1.574422,-1.574423 -2.481717,-3.655864 -0.907295,-2.08144 -0.907295,-4.429731 0,-2.348291 0.907295,-4.429732 0.907295,-2.081438 2.508402,-3.655861 1.601107,-1.574424 3.735919,-2.481718 2.13481,-0.907294 4.589841,-0.907294 z" fill="#000000" />

  <text x="12.553427" y="69.420258" font-size="8" font-family="sans-serif" fill="#000000">FCC ID: 2AMK2-RM110</text>

</svg>
