<svg xmlns="http://www.w3.org/2000/svg" width="31mm" height="14mm">

  <path d="m 20.22123,39.603655 q -3.59359,0 -6.72048,-1.35343 Q 10.32719,36.943465 8.017025,34.6333 5.70686,32.323135 4.35343,29.196244 3,26.116025 3,22.615775 3,19.162195 4.35343,16.035305 5.66019,12.955085 7.970355,10.64492 10.28052,8.334755 13.36074,7.027994 16.48763,5.674565 19.98788,5.674565 h 1.63345 v 4.99369 h -1.63345 q -2.52018,0 -4.71367,0.9334 -2.19349,0.9334 -3.803605,2.543515 -1.610115,1.610115 -2.543515,3.803605 -0.88673,2.19349 -0.88673,4.667 0,2.52018 0.88673,4.71367 0.9334,2.19349 2.543515,3.803605 1.610115,1.610114 3.803605,2.543515 2.19349,0.88673 4.71367,0.88673 h 1.63345 v 5.04036 z m 30.56885,0 h -1.68012 q -3.50025,0 -6.58047,-1.35343 -3.08022,-1.30676 -5.390385,-3.616925 -2.310165,-2.310165 -3.663595,-5.437056 -1.30676,-3.080219 -1.30676,-6.580469 0,-3.45358 1.30676,-6.58047 1.35343,-3.08022 3.663595,-5.390385 2.310165,-2.310165 5.390385,-3.616926 3.08022,-1.353429 6.58047,-1.353429 h 1.68012 v 4.99369 h -1.68012 q -2.05348,0 -3.96695,0.70005 -1.91347,0.70005 -3.476915,1.936805 -1.563445,1.236755 -2.683525,2.916875 -1.12008,1.72679 -1.58678,3.78027 h 10.03405 v 5.04036 H 37.39579 q 0.4667,2.05348 1.54011,3.78027 1.07341,1.68012 2.61352,2.916875 1.54011,1.236755 3.50025,1.936805 1.91347,0.65338 4.06029,0.65338 h 1.68012 z" fill="#000000" />

  <path d="m 87.208749,6.194154 h -2.30252 v 0.361949 h 2.30252 z m -6.57895,1.123718 c -0.35622,0.193481 -0.63315,0.429927 -0.78604,0.718345 h 0.78604 z m 11.954451,3.444539 -0.86743,0.883548 -0.0415,0.449309 h 1.04112 v -1.332867 z m -7.828811,7.059812 -4.48189,-4.727805 0.73473,8.541015 z m 0.8865,0.01145 4.28472,4.512542 0.8892,-9.541258 h -0.0877 v -0.152188 z m -5.4549,-5.744942 5.01359,5.280161 2.96554,-3.017714 h -4.18097 v -1.578917 h 4.8355 v 0.912816 l 1.90746,-1.941005 V 10.05232 h 0.34419 l 0.11123,-1.194121 H 79.909119 Z M 92.29162,25.77163 c 0.0205,0.123259 0.0316,0.249956 0.0316,0.379134 0,1.255823 -1.018021,2.273762 -2.273781,2.273762 -0.87202,0 -1.62945,-0.490836 -2.01089,-1.211354 h -5.5603 v 1.187815 h -1.46311 V 27.21014 c -0.17129,-0.02435 -0.33564,-0.186893 -0.35035,-0.357795 l -0.3124,-3.630656 -7.749929,7.894142 -0.463296,-0.455276 8.140505,-8.283922 -0.87752,-10.201712 -7.744327,-8.169262 V 3.106004 l 7.657957,8.065122 -0.2018,-2.345631 h -0.95103 V 8.036038 h 0.83676 c 0.0143,-0.0444 0.0334,-0.09605 0.0584,-0.154098 0.27821,-0.643068 0.85288,-1.102794 1.57162,-1.429832 v -0.52177 h 1.34898 v 0.08072 c 0.70282,-0.161449 1.4459,-0.249335 2.13805,-0.293922 V 5.404508 h 3.88143 v 1.940827 h -3.88143 V 6.525466 c -0.68755,0.05141 -1.44648,0.14517 -2.13805,0.309818 V 8.03605 h 9.17378 C 90.792459,7.186602 89.392719,6.788845 87.998139,6.60851 V 5.804651 c 1.39964,0.173528 2.8383,0.564855 3.56053,1.410364 C 91.75139,6.96969 92.05078,6.81206 92.38694,6.81206 c 0.58136,0 1.05261,0.471221 1.05261,1.052606 0,0.58131 -0.47122,1.052603 -1.05261,1.052603 -0.14479,0 -0.2827,-0.02912 -0.40821,-0.08211 l -0.11346,1.217087 h 0.5254 L 99.32095,3 v 0.900118 l -6.03969,6.152047 h 0.12569 v 2.752721 h -1.798051 l -0.96012,10.301647 7.102181,7.479787 -0.47118,0.447161 z m -4.516231,0.379134 c 0,-1.165636 0.87702,-2.126404 2.0072,-2.258375 l 0.0652,-0.698749 -4.65117,-4.906356 -4.11572,4.192296 0.33928,3.944207 h 6.37146 c -0.0105,-0.08946 -0.0162,-0.180688 -0.0162,-0.273013 z m 1.09129,0 c 0,0.653083 0.52938,1.18254 1.18255,1.18254 0.65308,0 1.18254,-0.529457 1.18254,-1.18254 0,-0.65314 -0.5295,-1.18254 -1.18254,-1.18254 -0.65314,0 -1.18255,0.5294 -1.18255,1.18254 z m 0.41455,0 c 0,-0.424151 0.34386,-0.768012 0.76802,-0.768012 0.42411,0 0.76801,0.343856 0.76801,0.768012 0,0.424152 -0.34386,0.767936 -0.76801,0.767936 -0.42415,0 -0.76802,-0.343808 -0.76802,-0.767936 z M 73.886587,36.708544 H 96.75939 v 5.569675 H 73.886587 Z" fill="#000000" />

</svg>
