<svg xmlns="http://www.w3.org/2000/svg" width="25.37664mm" height="18.746176mm">

  <path d="M 75.492481,46.701233 50.577887,14.506094 q -1.087354,-1.465565 -2.694747,-2.316538 -1.607393,-0.850973 -3.592997,-0.850973 -1.985603,0 -3.592996,0.850973 -1.607394,0.850973 -2.694748,2.316538 L 13.040528,46.701233 q -0.709144,1.087355 -1.205545,2.316538 -0.4964,1.229183 -0.4964,2.505642 0,3.262063 2.363813,5.625876 2.363814,2.363814 5.625877,2.363814 h 49.640083 q 3.262063,0 5.625876,-2.363814 2.363814,-2.363813 2.363814,-5.625876 0.189105,-1.276459 -0.26002,-2.505642 -0.449124,-1.229183 -1.205545,-2.316538 z m -6.524125,8.226071 H 19.61193 q -1.276459,0 -2.221985,-0.945525 -0.945525,-0.945525 -0.945525,-2.221985 0,-0.520039 0.189105,-1.040078 0.189105,-0.520039 0.520039,-0.898249 l 24.441832,-32.431521 0.520039,-0.472763 q 0.520039,-0.37821 1.063716,-0.543677 0.543677,-0.165467 1.110992,-0.165467 0.709144,0 1.418288,0.330934 0.709144,0.330934 1.229183,0.850973 l 24.678213,32.19514 q 0.37821,0.37821 0.567315,0.898249 0.189106,0.520039 0.189106,1.040078 0,1.465564 -0.969164,2.434728 -0.969164,0.969163 -2.434728,0.969163 z M 56.156487,33.369325 q 0.189105,-0.189105 0.212743,-0.520039 0.02364,-0.330934 0.02364,-0.661867 0,-0.567316 -0.37821,-1.01644 -0.37821,-0.449125 -1.087354,-0.449125 -0.37821,0 -0.709144,0.04728 -0.330934,0.04728 -0.520039,0.425487 l -9.880741,9.928017 h -0.283659 q -0.330934,0 -0.520039,-0.141829 -0.189105,-0.141829 -0.189105,-0.330934 l -1.229183,-4.113036 q -0.141829,-0.567315 -0.520039,-0.898249 -0.37821,-0.330934 -0.898249,-0.330934 -0.756421,0 -1.229183,0.496401 -0.472763,0.496401 -0.472763,1.205545 v 0.236381 l 1.938327,7.280546 q 0.189105,0.709144 0.732782,1.205545 0.543677,0.496401 1.441926,0.496401 0.378211,0 0.827335,-0.189105 0.449125,-0.189105 0.63823,-0.567316 z m -7.044164,-7.46965 q -1.087354,-0.378211 -2.363814,-0.685506 -1.276459,-0.307296 -2.694747,-0.307296 -3.025681,0 -5.673153,1.13463 -2.647471,1.181907 -4.609436,3.143872 -1.961965,1.961966 -3.096596,4.609437 -1.181906,2.647471 -1.181906,5.625876 0,3.025681 1.181906,5.673152 1.134631,2.600195 3.096596,4.585798 1.961965,1.985604 4.609436,3.120234 2.647472,1.134631 5.673153,1.134631 2.978405,0 5.625876,-1.134631 2.647471,-1.13463 4.609436,-3.120234 1.961965,-1.985603 3.143872,-4.585798 1.134631,-2.647471 1.134631,-5.673152 0,-0.709144 -0.496401,-1.063716 -0.496401,-0.354572 -1.205545,-0.354572 -0.709144,0 -1.205545,0.449124 -0.496401,0.449125 -0.496401,0.969164 0,2.363813 -0.898249,4.443969 -0.898249,2.080156 -2.434728,3.616635 -1.536479,1.536479 -3.616634,2.434728 -2.080156,0.898249 -4.396694,0.898249 -2.363813,0 -4.443969,-0.898249 -2.080156,-0.898249 -3.616635,-2.434728 -1.536478,-1.536479 -2.434727,-3.616635 -0.89825,-2.080156 -0.89825,-4.443969 0,-2.363814 0.945526,-4.396693 0.992801,-2.03288 2.623833,-3.522082 1.631031,-1.489203 3.758463,-2.340176 2.174709,-0.850973 4.538522,-0.850973 1.087354,0 2.03288,0.165467 0.945525,0.165467 1.843774,0.543677 0.189105,0 0.354572,0.118191 0.165467,0.118191 0.354572,0.118191 0.709144,0 1.205545,-0.472763 0.496401,-0.472763 0.496401,-1.229183 Q 50.388782,26.8452 50.03421,26.443352 49.679638,26.041503 49.112323,25.899675 Z" fill="#000000" />

</svg>
